<?xml version="1.0" standalone="no"?>
<!DOCTYPE svg PUBLIC "-//W3C//DTD SVG 20010904//EN"
 "http://www.w3.org/TR/2001/REC-SVG-20010904/DTD/svg10.dtd">
<svg version="1.0" xmlns="http://www.w3.org/2000/svg"
 width="45.000000pt" height="45.000000pt" viewBox="0 0 45.000000 45.000000"
 preserveAspectRatio="xMidYMid meet">

<g transform="translate(0.000000,45.000000) scale(0.100000,-0.100000)">
<path d="M59 435 c-46 -25 -59 -69 -59 -204 0 -208 17 -226 220 -226 117 0
139 3 167 20 52 31 66 81 62 224 -4 129 -16 161 -70 188 -35 19 -286 17 -320
-2z m309 -89 c-2 -13 -10 -21 -23 -21 -23 0 -33 34 -14 45 20 13 40 -1 37 -24z
m-76 -26 c58 -45 61 -129 7 -174 -40 -34 -70 -41 -114 -26 -45 15 -75 61 -75
114 0 30 7 45 34 72 29 29 41 34 79 34 29 0 53 -7 69 -20z"/>
<path d="M170 280 c-36 -36 -21 -102 27 -121 35 -13 77 4 92 37 16 35 14 48
-10 78 -26 33 -79 36 -109 6z"/>
</g>
</svg>
