<?xml version="1.0" standalone="no"?>
<!DOCTYPE svg PUBLIC "-//W3C//DTD SVG 20010904//EN"
 "http://www.w3.org/TR/2001/REC-SVG-20010904/DTD/svg10.dtd">
<svg version="1.0" xmlns="http://www.w3.org/2000/svg"
 width="45.000000pt" height="45.000000pt" viewBox="0 0 45.000000 45.000000"
 preserveAspectRatio="xMidYMid meet">
<g transform="translate(0.000000,45.000000) scale(0.017308,-0.017308)"
fill="#000000" stroke="none">
<path d="M1228 2580 c-25 -14 -59 -53 -114 -132 -43 -62 -206 -293 -362 -512
-242 -339 -286 -406 -290 -441 -9 -82 49 -153 133 -162 36 -5 74 7 250 76 114
45 209 80 212 78 2 -2 -8 -183 -23 -401 l-27 -398 21 -43 c15 -31 32 -48 64
-64 40 -19 62 -21 208 -21 195 0 232 11 270 83 l23 43 -27 398 c-15 219 -25
400 -23 403 3 2 97 -32 209 -77 115 -45 219 -80 239 -80 104 0 180 120 134
211 -9 16 -171 248 -360 517 -368 520 -388 543 -465 542 -19 -1 -51 -10 -72
-20z"/>
</g>
</svg>
