<?xml version="1.0" standalone="no"?>
<!DOCTYPE svg PUBLIC "-//W3C//DTD SVG 20010904//EN"
 "http://www.w3.org/TR/2001/REC-SVG-20010904/DTD/svg10.dtd">
<svg version="1.0" xmlns="http://www.w3.org/2000/svg"
 width="45.000000pt" height="45.000000pt" viewBox="0 0 45.000000 45.000000"
 preserveAspectRatio="xMidYMid meet">

<g transform="translate(0.000000,45.000000) scale(0.100000,-0.100000)"
fill="black" stroke="none">
<path d="M44 438 c-37 -17 -44 -51 -44 -213 0 -165 7 -196 47 -214 32 -15 324
-15 356 0 40 18 47 49 47 214 0 165 -7 196 -47 214 -31 14 -330 14 -359 -1z
m224 -81 c4 -20 -25 -34 -40 -19 -15 15 -1 44 19 40 10 -2 19 -11 21 -21z m72
-42 c0 -8 7 -15 15 -15 8 0 15 -9 15 -20 0 -11 -7 -20 -16 -20 -12 0 -14 -9
-12 -42 2 -35 6 -42 21 -40 13 2 18 -2 15 -15 -4 -22 -43 -29 -64 -13 -9 8
-14 31 -14 61 0 27 -4 49 -10 49 -5 0 -10 9 -10 20 0 11 5 20 10 20 6 0 10 7
10 15 0 8 9 15 20 15 11 0 20 -7 20 -15z m-130 -33 c0 -30 -31 -83 -54 -94
-35 -15 -33 -24 9 -38 19 -6 37 -20 40 -30 15 -46 -43 -82 -98 -61 -21 8 -27
17 -27 41 0 17 6 33 13 36 15 5 11 60 -4 70 -15 9 -10 56 7 75 20 22 114 23
114 1z m58 -65 c3 -72 1 -77 -18 -77 -18 0 -20 6 -20 81 0 71 2 80 18 77 14
-3 17 -16 20 -81z"/>
<path d="M127 264 c-16 -16 -7 -44 14 -44 15 0 20 5 17 22 -3 22 -19 33 -31
22z"/>
<path d="M115 109 c-8 -12 -5 -16 15 -19 29 -4 40 0 40 15 0 17 -45 21 -55 4z"/>
</g>
</svg>
