<?xml version="1.0" standalone="no"?>
<!DOCTYPE svg PUBLIC "-//W3C//DTD SVG 20010904//EN"
 "http://www.w3.org/TR/2001/REC-SVG-20010904/DTD/svg10.dtd">
<svg version="1.0" xmlns="http://www.w3.org/2000/svg"
 width="45.000000pt" height="45.000000pt" viewBox="0 0 45.000000 45.000000"
 preserveAspectRatio="xMidYMid meet">

<g transform="translate(0.000000,45.000000) scale(0.100000,-0.100000)">
<path d="M20 401 c-6 -12 -10 -93 -10 -195 0 -222 -16 -206 212 -206 223 0
208 -15 208 213 0 156 -2 176 -18 190 -16 15 -45 17 -200 17 -169 0 -182 -1
-192 -19z m124 -74 c9 -14 7 -21 -7 -32 -33 -24 -71 11 -46 42 15 18 39 13 53
-10z m4 -155 l3 -92 -31 0 -30 0 0 93 0 93 28 -2 27 -1 3 -91z m193 69 c15
-18 19 -39 19 -92 l0 -69 -35 0 -34 0 -3 68 c-3 59 -5 67 -23 67 -18 0 -20 -8
-23 -67 l-3 -68 -34 0 -35 0 0 88 c0 49 2 91 4 93 2 2 37 4 76 4 63 0 74 -3
91 -24z"/>
</g>
</svg>
