<?xml version="1.0" standalone="no"?>
<!DOCTYPE svg PUBLIC "-//W3C//DTD SVG 20010904//EN"
 "http://www.w3.org/TR/2001/REC-SVG-20010904/DTD/svg10.dtd">
<svg version="1.0" xmlns="http://www.w3.org/2000/svg"
 width="45.000000pt" height="45.000000pt" viewBox="0 0 45.000000 45.000000"
 preserveAspectRatio="xMidYMid meet">

<g transform="translate(0.000000,45.000000) scale(0.100000,-0.100000)"
fill="#000000" stroke="none">
<path d="M155 384 c-122 -63 -142 -203 -42 -291 135 -118 344 35 273 200 -38
89 -150 133 -231 91z m128 -18 c104 -43 127 -180 42 -255 -65 -57 -157 -51
-214 14 -106 121 24 303 172 241z"/>
<path d="M167 272 c-20 -21 -37 -42 -37 -48 0 -11 72 -84 83 -84 15 0 6 28
-14 46 -21 19 -21 19 45 24 36 3 66 10 66 15 0 6 -30 12 -66 15 -66 5 -66 5
-45 24 21 19 29 46 13 46 -4 0 -25 -17 -45 -38z"/>
</g>
</svg>
