<?xml version="1.0" standalone="no"?>
<!DOCTYPE svg PUBLIC "-//W3C//DTD SVG 20010904//EN"
 "http://www.w3.org/TR/2001/REC-SVG-20010904/DTD/svg10.dtd">
<svg version="1.0" xmlns="http://www.w3.org/2000/svg"
 width="45.000000pt" height="45.000000pt" viewBox="0 0 45.000000 45.000000"
 preserveAspectRatio="xMidYMid meet">

<g transform="translate(0.000000,45.000000) scale(0.100000,-0.100000)"
fill="#000000" stroke="none">
<path d="M155 386 c-119 -53 -141 -206 -42 -293 79 -69 203 -49 263 42 38 57
29 147 -19 202 -53 60 -133 80 -202 49z m128 -20 c104 -43 127 -180 42 -255
-61 -53 -139 -53 -201 1 -128 112 2 320 159 254z"/>
<path d="M230 297 c0 -8 10 -22 21 -33 21 -19 21 -19 -45 -24 -36 -3 -66 -9
-66 -15 0 -5 30 -12 66 -15 66 -5 66 -5 45 -24 -21 -19 -29 -46 -13 -46 11 0
82 74 82 86 0 11 -72 84 -83 84 -4 0 -7 -6 -7 -13z"/>
</g>
</svg>
